<svg id="visual" viewBox="0 0 900 600" width="900" height="600" xmlns="http://www.w3.org/2000/svg" xmlns:xlink="http://www.w3.org/1999/xlink" version="1.1"><rect x="0" y="0" width="900" height="600" fill="#001220"></rect><path d="M0 398L21.5 399.8C43 401.7 86 405.3 128.8 404.8C171.7 404.3 214.3 399.7 257.2 396.2C300 392.7 343 390.3 385.8 388.3C428.7 386.3 471.3 384.7 514.2 385.3C557 386 600 389 642.8 389C685.7 389 728.3 386 771.2 393.5C814 401 857 419 878.5 428L900 437L900 601L878.5 601C857 601 814 601 771.2 601C728.3 601 685.7 601 642.8 601C600 601 557 601 514.2 601C471.3 601 428.7 601 385.8 601C343 601 300 601 257.2 601C214.3 601 171.7 601 128.8 601C86 601 43 601 21.5 601L0 601Z" fill="#fa7268"></path><path d="M0 430L21.5 438.3C43 446.7 86 463.3 128.8 463C171.7 462.7 214.3 445.3 257.2 435.5C300 425.7 343 423.3 385.8 418.8C428.7 414.3 471.3 407.7 514.2 405.3C557 403 600 405 642.8 411.5C685.7 418 728.3 429 771.2 428.5C814 428 857 416 878.5 410L900 404L900 601L878.5 601C857 601 814 601 771.2 601C728.3 601 685.7 601 642.8 601C600 601 557 601 514.2 601C471.3 601 428.7 601 385.8 601C343 601 300 601 257.2 601C214.3 601 171.7 601 128.8 601C86 601 43 601 21.5 601L0 601Z" fill="#ef5f67"></path><path d="M0 439L21.5 450.8C43 462.7 86 486.3 128.8 495C171.7 503.7 214.3 497.3 257.2 488.8C300 480.3 343 469.7 385.8 467.3C428.7 465 471.3 471 514.2 479.3C557 487.7 600 498.3 642.8 499.5C685.7 500.7 728.3 492.3 771.2 486C814 479.7 857 475.3 878.5 473.2L900 471L900 601L878.5 601C857 601 814 601 771.2 601C728.3 601 685.7 601 642.8 601C600 601 557 601 514.2 601C471.3 601 428.7 601 385.8 601C343 601 300 601 257.2 601C214.3 601 171.7 601 128.8 601C86 601 43 601 21.5 601L0 601Z" fill="#e34c67"></path><path d="M0 523L21.5 518C43 513 86 503 128.8 500.7C171.7 498.3 214.3 503.7 257.2 503.5C300 503.3 343 497.7 385.8 493.3C428.7 489 471.3 486 514.2 486.5C557 487 600 491 642.8 492.7C685.7 494.3 728.3 493.7 771.2 497.5C814 501.3 857 509.7 878.5 513.8L900 518L900 601L878.5 601C857 601 814 601 771.2 601C728.3 601 685.7 601 642.8 601C600 601 557 601 514.2 601C471.3 601 428.7 601 385.8 601C343 601 300 601 257.2 601C214.3 601 171.7 601 128.8 601C86 601 43 601 21.5 601L0 601Z" fill="#d53867"></path><path d="M0 527L21.5 532.5C43 538 86 549 128.8 556.3C171.7 563.7 214.3 567.3 257.2 566.2C300 565 343 559 385.8 553.3C428.7 547.7 471.3 542.3 514.2 544C557 545.7 600 554.3 642.8 556.8C685.7 559.3 728.3 555.7 771.2 549.3C814 543 857 534 878.5 529.5L900 525L900 601L878.5 601C857 601 814 601 771.2 601C728.3 601 685.7 601 642.8 601C600 601 557 601 514.2 601C471.3 601 428.7 601 385.8 601C343 601 300 601 257.2 601C214.3 601 171.7 601 128.8 601C86 601 43 601 21.5 601L0 601Z" fill="#c62368"></path></svg>